<?xml version="1.0" encoding="UTF-8" standalone="no"?>
<svg width="512px" height="365px" viewBox="0 0 512 365" version="1.1" xmlns="http://www.w3.org/2000/svg" xmlns:xlink="http://www.w3.org/1999/xlink" xmlns:sketch="http://www.bohemiancoding.com/sketch/ns">
    <title>lisieres-centre</title>
    <description>Created with Sketch (http://www.bohemiancoding.com/sketch)</description>
    <defs></defs>
    <g id="Page 1" stroke="none" stroke-width="1" fill="none" fill-rule="evenodd">
        <g id="Group" transform="translate(8.000000, 61.000000)">
            <path d="M22.9914089,0 C10.2936044,0 0,10.2912284 0,23.0084233 L0,270.991577 C0,283.698778 10.2975612,294 22.9914089,294 L460.008591,294 C472.706396,294 483,283.708772 483,270.991577 L483,23.0084233 C483,10.301222 472.702439,0 460.008591,0 L22.9914089,0 Z M22.9914089,0" id="Rectangle 1" fill="#D5FEFF"></path>
            <path d="M464.205851,284.000008 L16.4181188,284.546654 C13.015226,284.550805 11.1866969,285.875855 12.3508969,287.507037 C13.5329431,289.13786 17.2107648,290.463179 20.5565679,290.467228 L461.113578,290.999992 C464.461252,291.004037 467.911773,289.442379 468.801753,287.50704 C469.669671,285.567774 467.606292,283.995853 464.205851,284.000008 Z M464.205851,284.000008" id="Path" fill="#A1B8B8"></path>
            <path d="M461.258304,2.5451639 L18.3697805,2.97114505 C15.0041185,2.97437945 13.1955952,4.00694194 14.3470578,5.27806204 C15.5161713,6.54890271 19.1537543,7.58167489 22.4629512,7.58483031 L458.199863,7.99999389 C461.51091,8.00314615 464.92368,6.78620314 465.803922,5.27806499 C466.662344,3.76686591 464.621541,2.54192626 461.258304,2.5451639 Z M461.258304,2.5451639" id="Path" fill="#A1B8B8" transform="translate(240.000000, 5.272579) rotate(-180.000000) translate(-240.000000, -5.272579) "></path>
            <path d="M238.602,6.50000001 L238.602,283.499991" id="Line" stroke="#A1B8B8" stroke-width="5" stroke-linecap="square"></path>
            <path d="M198.46076,6.50189993 L238.262856,6.28674083 L238.262856,30.0832213 C238.262856,30.0832209 228.937169,27.0025908 219.381219,27.0025908 C211.650557,27.3647674 205.870541,30.0832209 198.46076,30.3869521 C198.46076,30.3869521 194.594282,28.0640386 198.46076,19.9834985 C202.327238,11.9029583 198.46076,6.50189993 198.46076,6.50189993 Z M198.46076,6.50189993" id="Path 2" fill="#A1B8B8"></path>
            <path d="M104.593747,9.87499995 C104.593747,9.87499995 192.062081,7.42035218 198.26074,7.42035217 C198.512444,7.42035217 213.388679,7.42035217 223.808233,12.37037 C235.129876,17.7489435 236.027542,23.9788115 236.02754,29.910874 C236.027532,38.5098239 233.166016,89.9921906 233.166016,89.9921906" id="Path 3" stroke="#D5FEFF" stroke-width="3"></path>
        </g>
        <g id="Group" transform="translate(15.000000, 15.000000)">
            <path d="M234.5,22.75 C364.01078,22.75 469,19.4033287 469,15.275 C469,11.1466713 364.01078,7.8 234.5,7.8 C104.98922,7.8 0,11.1466713 0,15.275 C0,19.4033287 104.98922,22.75 234.5,22.75 Z M234.5,22.75" id="Oval 1" stroke="#979797" stroke-width="2"></path>
            <path d="M191.074074,0 L191.074074,16.9 L265.702332,16.9 L265.702332,0 L191.074074,0 Z M191.074074,0" id="Rectangle 4" fill="#FFFFFF"></path>
            <text id="laize ou largeur" fill="#000000" font-family="Helvetica" font-size="7.2" font-weight="normal" x="196.864198" y="11.1">
                <tspan>laize ou largeur</tspan>
            </text>
            <path d="M227.101509,20.15 L227.101509,26 L235.465021,26 L235.465021,20.15 L227.101509,20.15 Z M227.101509,20.15" id="Rectangle 5" fill="#FFFFFF"></path>
            <path d="M234.821674,24.7 C235.887606,24.7 236.751715,23.8269553 236.751715,22.75 C236.751715,21.6730447 235.887606,20.8 234.821674,20.8 C233.755741,20.8 232.891632,21.6730447 232.891632,22.75 C232.891632,23.8269553 233.755741,24.7 234.821674,24.7 Z M234.821674,24.7" id="Oval 2" fill="#9B9B9B"></path>
            <path d="M227.101509,24.7 C228.167441,24.7 229.03155,23.8269553 229.03155,22.75 C229.03155,21.6730447 228.167441,20.8 227.101509,20.8 C226.035577,20.8 225.171468,21.6730447 225.171468,22.75 C225.171468,23.8269553 226.035577,24.7 227.101509,24.7 Z M227.101509,24.7" id="Oval 2" fill="#9B9B9B"></path>
        </g>
        <g id="dos" transform="translate(284.000000, 78.000000)">
            <path d="M105,1.00000024 C105,1.00000051 103.382813,15.8148084 139.191406,38.037037 C175,60.2592592 205,60.2592592 205,60.2592592 L205,239.354129 L0.27792906,241.976684 L5.00000036,149.148148 C5.00000072,149.148149 37.6718563,141.696293 45,123.228009 C62.5743602,78.9373596 55,1.00000024 55,1.00000024 C55,1.00000024 105,0.999999701 105,1.00000024 Z M105,1.00000024" stroke="#000000"></path>
            <text id="DOS" fill="#4A4A4A" font-family="Helvetica Neue" font-size="36" font-weight="normal" x="64" y="214.932083">
                <tspan>DOS</tspan>
            </text>
        </g>
        <g id="devant" transform="translate(111.000000, 228.500000) scale(-1, 1) translate(-111.000000, -228.500000) translate(8.000000, 76.000000)">
            <path d="M106,1.00000024 C106,1.00000051 104.382813,15.8148084 140.191406,38.037037 C176,60.2592592 206,60.2592592 206,60.2592592 L206,249.451117 L0.983957962,247.755696 L6.00000036,149.148148 C6.00000072,149.148149 38.6718563,141.696293 46,123.228009 C63.5743602,78.9373596 56,1.00000024 56,1.00000024 C56,1.00000024 106,0.999999701 106,1.00000024 Z M106,1.00000024" id="devqnt" stroke="#000000"></path>
            <text id="DEVANT" fill="#4A4A4A" transform="translate(109.000000, 199.000000) scale(-1, 1) translate(-109.000000, -199.000000) " font-family="Helvetica" font-size="36" font-weight="normal" x="37" y="213">
                <tspan>DEVANT</tspan>
            </text>
        </g>
    </g>
</svg>