<?xml version="1.0" encoding="UTF-8" standalone="no"?>
<svg width="512px" height="365px" viewBox="0 0 512 365" version="1.1" xmlns="http://www.w3.org/2000/svg" xmlns:xlink="http://www.w3.org/1999/xlink" xmlns:sketch="http://www.bohemiancoding.com/sketch/ns">
    <title>lisiere-lisiere</title>
    <description>Created with Sketch (http://www.bohemiancoding.com/sketch)</description>
    <defs></defs>
    <g id="Page 1" stroke="none" stroke-width="1" fill="none" fill-rule="evenodd">
        <g id="background" transform="translate(17.000000, 52.000000)">
            <path d="M460.017454,275 C467.739801,275 474,270.284719 474,264.461519 L474,10.5384808 C474,4.71823855 467.74151,-1.27321166e-14 460.017454,0 L32.2274466,0 L18,0 L18.2449001,264.461519 C18.2449001,270.281761 24.5033902,275 32.2274462,275 L460.017454,275 Z M460.017454,275" id="Rectangle 2" fill="#A1B8B8"></path>
            <path d="M474.719668,17.4179487 C474.719673,16.3479417 474.853252,15.9692444 474.719646,15.2304667 C474.196249,12.3363302 472.773908,11.3514481 473.63666,12.4190258 C474.719646,13.7591039 463.817908,15.9089644 460.234161,15.9090744 L1.12522972e-10,15.9231903 C-3.85046424e-08,15.9231903 9.87561984e-06,277 9.87561984e-06,277 L474.648992,276.354346 C474.648992,276.354346 474.67364,271.702542 474.719646,266.192432 L474.649012,25.8803556 C474.660604,24.491991 474.719644,22.6796529 474.719668,17.4179487 Z M474.719668,17.4179487" id="Rectangle 1" fill="#D5FEFF"></path>
        </g>
        <g id="laize" transform="translate(23.586137, 14.602022)">
            <path d="M236.372215,22.737854 C365.643383,22.737854 470.43836,19.4029991 470.43836,15.2892467 C470.43836,11.1754942 365.643383,7.84063933 236.372215,7.84063933 C107.101046,7.84063933 2.30607039,11.1754942 2.30607039,15.2892467 C2.30607039,19.4029991 107.101046,22.737854 236.372215,22.737854 Z M236.372215,22.737854" id="Oval 1" stroke="#979797" stroke-width="2"></path>
            <path d="M207.546335,0 L207.546335,16.4653426 L280.571897,16.4653426 L280.571897,0 L207.546335,0 Z M207.546335,0" id="Rectangle 4" fill="#FFFFFF"></path>
            <text id="laize ou largeur" fill="#000000" font-family="Helvetica" font-size="8.50059032" font-weight="normal" x="211.389786" y="9.28465425">
                <tspan>laize ou largeur</tspan>
            </text>
            <path d="M0,8.62470326 L0,23.521918 L20.7546335,23.521918 L20.7546335,8.62470326 L0,8.62470326 Z M0,8.62470326" id="Rectangle 5" fill="#FFFFFF"></path>
            <path d="M21.1389786,19.6015983 C22.2003182,19.6015983 23.0607039,18.7240049 23.0607039,17.6414385 C23.0607039,16.558872 22.2003182,15.6812787 21.1389786,15.6812787 C20.0776389,15.6812787 19.2172532,16.558872 19.2172532,17.6414385 C19.2172532,18.7240049 20.0776389,19.6015983 21.1389786,19.6015983 Z M21.1389786,19.6015983" id="Oval 2" fill="#9B9B9B"></path>
            <path d="M21.1389786,14.1131508 C22.2003182,14.1131508 23.0607039,13.2355574 23.0607039,12.152991 C23.0607039,11.0704245 22.2003182,10.1928311 21.1389786,10.1928311 C20.0776389,10.1928311 19.2172532,11.0704245 19.2172532,12.152991 C19.2172532,13.2355574 20.0776389,14.1131508 21.1389786,14.1131508 Z M21.1389786,14.1131508" id="Oval 2" fill="#9B9B9B"></path>
        </g>
        <path d="M139.633477,83.3433361 C139.633477,83.3433364 155.984607,99.6944719 172.335737,107.870031 C188.686867,116.045596 221.389128,113.99887 221.389128,116.045596 L221.389128,318.797333 L51.9862224,318.7322 L57.8778259,246.854638 C57.8778262,246.854639 84.5889144,238.630016 90.580086,218.246547 C104.948119,169.3629 98.7556511,83.3433361 98.7556511,83.3433361 C98.7556511,83.3433361 139.633477,83.3433355 139.633477,83.3433361 Z M139.633477,83.3433361" id="devant" stroke="#000000"></path>
        <path d="M410.209722,83.7764372 C410.209722,83.7764375 408.887581,100.12756 438.163129,124.654262 C467.438678,149.180958 491.965373,149.180958 491.965373,149.180958 L491.965373,319.343386 L322.50074,319.918383 L328.454071,247.287739 C328.454072,247.28774 355.16516,239.063117 361.156331,218.679648 C375.524364,169.796001 369.331897,83.7764372 369.331897,83.7764372 C369.331897,83.7764372 410.209722,83.7764366 410.209722,83.7764372 Z M410.209722,83.7764372" id="dos" stroke="#000000"></path>
        <text id="DOS" fill="#4A4A4A" font-family="Helvetica Neue" font-size="36" font-weight="normal" x="92" y="292.932083">
            <tspan>DOS</tspan>
        </text>
        <text id="DEVANT" fill="#4A4A4A" font-family="Helvetica Neue" font-size="36" font-weight="normal" x="346" y="292.932083">
            <tspan>DEVANT</tspan>
        </text>
    </g>
</svg>