<?xml version="1.0" encoding="UTF-8" standalone="no"?>
<svg width="512px" height="365px" viewBox="0 0 512 365" version="1.1" xmlns="http://www.w3.org/2000/svg" xmlns:xlink="http://www.w3.org/1999/xlink" xmlns:sketch="http://www.bohemiancoding.com/sketch/ns">
    <title>pli_religieuses</title>
    <description>Created with Sketch (http://www.bohemiancoding.com/sketch)</description>
    <defs></defs>
    <g id="Page 1" stroke="none" stroke-width="1" fill="none" fill-rule="evenodd">
        <g id="Group" transform="translate(15.000000, 86.000000)">
            <path d="M444.500001,1.49071892 L444.499999,46.430839" id="Line" stroke="#5D8CE1" stroke-linecap="square"></path>
            <path id="Line decoration-1" d="M441.5,13.0907186 C442.55,9.31071873 443.45,6.07071881 444.500001,2.29071891 C445.55,6.0707189 446.45,9.3107189 447.5,13.0907189" stroke="#5D8CE1" stroke-linecap="square"></path>
            <path id="Line decoration-2" d="M441.5,34.6907184 C442.55,38.4707184 443.45,41.7107184 444.499999,45.4907184 C445.55,41.7107184 446.45,38.4707185 447.5,34.6907186" stroke="#5D8CE1" stroke-linecap="square"></path>
            <text id="2 cm" fill="#000000" font-family="Roboto" font-size="14" font-weight="normal" x="458" y="36.4638672">
                <tspan>2 cm</tspan>
            </text>
            <path d="M444.5,46.4489796 L444.5,89.5510204" id="Line" stroke="#5D8CE1" stroke-linecap="square"></path>
            <path id="Line decoration-1" d="M441.5,58.0489799 C442.55,54.2689798 443.45,51.0289797 444.5,47.2489796 C445.55,51.0289798 446.45,54.2689799 447.5,58.0489801" stroke="#5D8CE1" stroke-linecap="square"></path>
            <path id="Line decoration-2" d="M441.5,78.6489806 C442.55,82.4289807 443.45,85.6689809 444.5,89.4489811 C445.55,85.668981 446.45,82.4289809 447.5,78.6489808" stroke="#5D8CE1" stroke-linecap="square"></path>
            <text id="2 cm" fill="#000000" font-family="Roboto" font-size="14" font-weight="normal" x="458" y="78.4638672">
                <tspan>2 cm</tspan>
            </text>
            <path d="M138.719163,45.5 L479.598361,45.5" id="Line" stroke="#979797" stroke-linecap="square"></path>
            <path d="M138.719163,90.5 L479.601315,90.5" id="Line" stroke="#4A4A4A" stroke-linecap="square" stroke-dasharray="10,5"></path>
            <path d="M140.082691,1.5 L480.964844,1.5" id="Line" stroke="#4A4A4A" stroke-linecap="square" stroke-dasharray="10,5"></path>
            <text id="ligne de piqure" fill="#000000" font-family="Roboto" font-size="14" font-weight="normal" x="0" y="36.4638672">
                <tspan>ligne de piqure</tspan>
            </text>
            <path d="M138.719163,0.142515314 C138.719162,0.142509097 107.966778,14.6866125 107.966779,26.7238942 C107.966779,38.7611759 138.719163,90.0227556 138.719163,90.0227556" id="Path 9" stroke="#5D8CE1"></path>
            <path id="Path 9 decoration-1" d="M126.98617,3.07900236 C130.846181,2.06267878 134.143114,1.29009576 138.004269,0.489634307 C135.127852,3.14489789 132.750946,5.46589355 130.057388,8.23338157" stroke="#5D8CE1"></path>
            <path id="Path 9 decoration-2" d="M130.324017,81.6018039 C133.130009,84.3629417 135.539528,86.7079622 138.363164,89.4262578 C137.351228,85.6460108 136.503095,82.4053181 135.52767,78.6148332" stroke="#5D8CE1"></path>
            <text id="arête du pli" fill="#000000" font-family="Roboto" font-size="14" font-weight="normal" x="169" y="45.4638672">
                <tspan>arête du pli</tspan>
            </text>
        </g>
        <g id="Group" transform="translate(11.000000, 211.000000)">
            <path d="M449.500001,1.42425285 L449.499999,46.364373" id="Line" stroke="#5D8CE1" stroke-linecap="square"></path>
            <path id="Line decoration-1" d="M446.5,13.0242526 C447.55,9.24425266 448.45,6.00425274 449.500001,2.22425284 C450.55,6.00425283 451.45,9.24425283 452.5,13.0242528" stroke="#5D8CE1" stroke-linecap="square"></path>
            <path id="Line decoration-2" d="M446.5,34.6242523 C447.55,38.4042523 448.45,41.6442523 449.499999,45.4242523 C450.55,41.6442524 451.45,38.4042525 452.5,34.6242526" stroke="#5D8CE1" stroke-linecap="square"></path>
            <text id="2 cm" fill="#000000" font-family="Roboto" font-size="14" font-weight="normal" x="461" y="37.4638672">
                <tspan>2 cm</tspan>
            </text>
            <path d="M449.5,46.4489796 L449.5,89.5510204" id="Line" stroke="#5D8CE1" stroke-linecap="square"></path>
            <path id="Line decoration-1" d="M446.5,58.0489799 C447.55,54.2689798 448.45,51.0289797 449.5,47.2489796 C450.55,51.0289798 451.45,54.2689799 452.5,58.0489801" stroke="#5D8CE1" stroke-linecap="square"></path>
            <path id="Line decoration-2" d="M446.5,78.6489806 C447.55,82.4289807 448.45,85.6689809 449.5,89.4489811 C450.55,85.668981 451.45,82.4289809 452.5,78.6489808" stroke="#5D8CE1" stroke-linecap="square"></path>
            <text id="2 cm" fill="#000000" font-family="Roboto" font-size="14" font-weight="normal" x="458" y="78.4638672">
                <tspan>2 cm</tspan>
            </text>
            <path d="M137.326348,44.5 L482.716269,44.5" id="Line" stroke="#979797" stroke-linecap="square"></path>
            <path d="M137.326348,88.5 L482.716269,88.5" id="Line" stroke="#4A4A4A" stroke-linecap="square" stroke-dasharray="10,5"></path>
            <path d="M139.100276,0.5 L484.490196,0.5" id="Line" stroke="#4A4A4A" stroke-linecap="square" stroke-dasharray="10,5"></path>
            <text id="ligne de piqure" fill="#000000" font-family="Roboto" font-size="14" font-weight="normal" x="0" y="37.4638672">
                <tspan>ligne de piqure</tspan>
            </text>
            <path d="M137.326348,0.0760492439 C137.326348,0.0760430272 106.573964,14.6201464 106.573964,26.6574281 C106.573964,38.6947098 137.326349,89.9562895 137.326348,89.9562895" id="Path 9" stroke="#5D8CE1"></path>
            <path id="Path 9 decoration-1" d="M125.593356,3.01253629 C129.453367,1.99621271 132.7503,1.22362969 136.611455,0.423168237 C133.735038,3.07843182 131.358132,5.39942748 128.664573,8.1669155" stroke="#5D8CE1"></path>
            <path id="Path 9 decoration-2" d="M128.931203,81.5353378 C131.737195,84.2964756 134.146713,86.6414962 136.97035,89.3597917 C135.958414,85.5795448 135.110281,82.3388521 134.134856,78.5483672" stroke="#5D8CE1"></path>
            <text id="arête du pli" fill="#000000" font-family="Roboto" font-size="14" font-weight="normal" x="168" y="45.4638672">
                <tspan>arête du pli</tspan>
            </text>
        </g>
        <text id="1,5 cm" fill="#000000" font-family="Roboto" font-size="14" font-weight="normal" x="334" y="206.463867">
            <tspan>1,5 cm</tspan>
        </text>
        <path d="M323.592817,175.123953 L323.422048,209.278018" id="Line" stroke="#5D8CE1" stroke-linecap="square"></path>
        <path id="Line decoration-1" d="M320.534855,186.708808 C321.603742,182.934106 322.51993,179.698646 323.588817,175.923943 C324.619904,179.709146 325.503693,182.953605 326.53478,186.738808" stroke="#5D8CE1" stroke-linecap="square"></path>
        <path id="Line decoration-2" d="M320.476857,198.308663 C321.507944,202.093866 322.391733,205.338325 323.42282,209.123528 C324.491707,205.348825 325.407895,202.113366 326.476782,198.338663" stroke="#5D8CE1" stroke-linecap="square"></path>
        <text id="PLIS RELIGIEUSES" fill="#4A4A4A" font-family="Roboto" font-size="20" font-weight="normal" x="267" y="81.3769531">
            <tspan>PLIS RELIGIEUSES</tspan>
        </text>
    </g>
</svg>