<?xml version="1.0" encoding="UTF-8" standalone="no"?>
<svg width="618px" height="412px" viewBox="0 0 618 412" version="1.1" xmlns="http://www.w3.org/2000/svg" xmlns:xlink="http://www.w3.org/1999/xlink" xmlns:sketch="http://www.bohemiancoding.com/sketch/ns">
    <title>pli_nervure</title>
    <description>Created with Sketch (http://www.bohemiancoding.com/sketch)</description>
    <defs></defs>
    <g id="Page 1" stroke="none" stroke-width="1" fill="none" fill-rule="evenodd">
        <g id="Group" transform="translate(13.000000, 249.000000)">
            <path d="M519.343122,1.38118812 L519.343122,45.5792079" id="Line" stroke="#5D8CE1" stroke-linecap="square"></path>
            <path id="Line decoration-1" d="M516.343122,12.9811877 C517.393122,9.20118783 518.293122,5.96118796 519.343122,2.1811881 C520.393122,5.96118805 521.293122,9.201188 522.343122,12.981188" stroke="#5D8CE1" stroke-linecap="square"></path>
            <path id="Line decoration-2" d="M516.343122,34.5811871 C517.393122,38.3611871 518.293122,41.601187 519.343122,45.381187 C520.393122,41.6011871 521.293122,38.3611873 522.343122,34.5811874" stroke="#5D8CE1" stroke-linecap="square"></path>
            <text id="0,5 cm" fill="#000000" font-family="Roboto" font-size="14" font-weight="normal" x="524.950541" y="36.4589167">
                <tspan>0,5 cm</tspan>
            </text>
            <path d="M519.343122,47.4207921 L519.343122,91.6188119" id="Line" stroke="#5D8CE1" stroke-linecap="square"></path>
            <path id="Line decoration-1" d="M516.343122,59.0207917 C517.393122,55.2407918 518.293122,52.0007919 519.343122,48.2207921 C520.393122,52.000792 521.293122,55.240792 522.343122,59.0207919" stroke="#5D8CE1" stroke-linecap="square"></path>
            <path id="Line decoration-2" d="M516.343122,80.6207911 C517.393122,84.400791 518.293122,87.640791 519.343122,91.420791 C520.393122,87.6407911 521.293122,84.4007912 522.343122,80.6207914" stroke="#5D8CE1" stroke-linecap="square"></path>
            <text id="0,5 cm" fill="#000000" font-family="Roboto" font-size="14" font-weight="normal" x="525.950541" y="81.5777286">
                <tspan>0,5 cm</tspan>
            </text>
            <path d="M127.743431,46.5 L568.234204,46.5" id="Line" stroke="#979797" stroke-linecap="square"></path>
            <path d="M127.743431,92.539604 L568.238022,92.539604" id="Line" stroke="#4A4A4A" stroke-linecap="square" stroke-dasharray="10,5"></path>
            <path d="M129.50541,0.46039604 L570,0.46039604" id="Line" stroke="#4A4A4A" stroke-linecap="square" stroke-dasharray="10,5"></path>
            <text id="ligne de piqure" fill="#000000" font-family="Roboto" font-size="14" font-weight="normal" x="0" y="44.4589167">
                <tspan>ligne de piqure</tspan>
            </text>
            <path d="M127.743431,0 C127.743431,-6.36879902e-06 97.6005235,14.8999262 97.6005236,27.2317064 C97.6005239,39.5634866 127.743432,92.0792079 127.743431,92.0792079" id="Path 9" stroke="#5D8CE1"></path>
            <path id="Path 9 decoration-1" d="M116.055062,3.16884345 C119.899023,2.07191403 123.184056,1.23380978 127.028052,0.363156388 C124.203693,3.06965862 121.870354,5.43700802 119.231744,8.25890178" stroke="#5D8CE1"></path>
            <path id="Path 9 decoration-2" d="M119.462033,83.4148518 C122.221022,86.2386086 124.586613,88.6310477 127.362314,91.411604 C126.418267,87.6038939 125.6306,84.3452571 124.720909,80.5262144" stroke="#5D8CE1"></path>
            <text id="arête du pli" fill="#000000" font-family="Roboto" font-size="14" font-weight="normal" x="159.697063" y="46.4242632">
                <tspan>arête du pli</tspan>
            </text>
        </g>
        <g id="Group" transform="translate(23.000000, 64.000000)">
            <path d="M519.343122,1.38118812 L519.343122,45.5792079" id="Line" stroke="#5D8CE1" stroke-linecap="square"></path>
            <path id="Line decoration-1" d="M516.343122,12.9811877 C517.393122,9.20118783 518.293122,5.96118796 519.343122,2.1811881 C520.393122,5.96118805 521.293122,9.201188 522.343122,12.981188" stroke="#5D8CE1" stroke-linecap="square"></path>
            <path id="Line decoration-2" d="M516.343122,34.5811871 C517.393122,38.3611871 518.293122,41.601187 519.343122,45.381187 C520.393122,41.6011871 521.293122,38.3611873 522.343122,34.5811874" stroke="#5D8CE1" stroke-linecap="square"></path>
            <text id="0,5 cm" fill="#000000" font-family="Roboto" font-size="14" font-weight="normal" x="522.950541" y="38.4589167">
                <tspan>0,5 cm</tspan>
            </text>
            <path d="M519.343122,47.4207921 L519.343122,91.6188119" id="Line" stroke="#5D8CE1" stroke-linecap="square"></path>
            <path id="Line decoration-1" d="M516.343122,59.0207917 C517.393122,55.2407918 518.293122,52.0007919 519.343122,48.2207921 C520.393122,52.000792 521.293122,55.240792 522.343122,59.0207919" stroke="#5D8CE1" stroke-linecap="square"></path>
            <path id="Line decoration-2" d="M516.343122,80.6207911 C517.393122,84.400791 518.293122,87.640791 519.343122,91.420791 C520.393122,87.6407911 521.293122,84.4007912 522.343122,80.6207914" stroke="#5D8CE1" stroke-linecap="square"></path>
            <text id="0,5 cm" fill="#000000" font-family="Roboto" font-size="14" font-weight="normal" x="525.950541" y="79.5777286">
                <tspan>0,5 cm</tspan>
            </text>
            <path d="M127.743431,46.5 L568.234204,46.5" id="Line" stroke="#979797" stroke-linecap="square"></path>
            <path d="M127.743431,92.539604 L568.238022,92.539604" id="Line" stroke="#4A4A4A" stroke-linecap="square" stroke-dasharray="10,5"></path>
            <path d="M129.50541,0.46039604 L570,0.46039604" id="Line" stroke="#4A4A4A" stroke-linecap="square" stroke-dasharray="10,5"></path>
            <text id="ligne de piqure" fill="#000000" font-family="Roboto" font-size="14" font-weight="normal" x="0" y="44.4589167">
                <tspan>ligne de piqure</tspan>
            </text>
            <path d="M127.743431,0 C127.743431,-6.36879902e-06 97.6005235,14.8999262 97.6005236,27.2317064 C97.6005239,39.5634866 127.743432,92.0792079 127.743431,92.0792079" id="Path 9" stroke="#5D8CE1"></path>
            <path id="Path 9 decoration-1" d="M116.055062,3.16884345 C119.899023,2.07191403 123.184056,1.23380978 127.028052,0.363156388 C124.203693,3.06965862 121.870354,5.43700802 119.231744,8.25890178" stroke="#5D8CE1"></path>
            <path id="Path 9 decoration-2" d="M119.462033,83.4148518 C122.221022,86.2386086 124.586613,88.6310477 127.362314,91.411604 C126.418267,87.6038939 125.6306,84.3452571 124.720909,80.5262144" stroke="#5D8CE1"></path>
            <text id="arête du pli" fill="#000000" font-family="Roboto" font-size="14" font-weight="normal" x="157.697063" y="46.4242632">
                <tspan>arête du pli</tspan>
            </text>
        </g>
        <text id="1 cm" fill="#000000" font-family="Roboto" font-size="14" font-weight="normal" x="324" y="221.463867">
            <tspan>1 cm</tspan>
        </text>
        <path d="M316.5,155.578147 L316.5,247.80818" id="Line" stroke="#5D8CE1" stroke-linecap="square"></path>
        <path id="Line decoration-1" d="M313.5,167.178147 C314.55,163.398147 315.45,160.158147 316.5,156.378147 C317.55,160.158147 318.45,163.398147 319.5,167.178147" stroke="#5D8CE1" stroke-linecap="square"></path>
        <path id="Line decoration-2" d="M313.5,236.778146 C314.55,240.558146 315.45,243.798146 316.5,247.578146 C317.55,243.798146 318.45,240.558146 319.5,236.778146" stroke="#5D8CE1" stroke-linecap="square"></path>
        <text id="NERVURES" fill="#4A4A4A" font-family="Roboto" font-size="20" font-weight="normal" x="276" y="58.3769531">
            <tspan>NERVURES</tspan>
        </text>
    </g>
</svg>