<?xml version="1.0" encoding="UTF-8" standalone="no"?>
<svg width="618px" height="412px" viewBox="0 0 618 412" version="1.1" xmlns="http://www.w3.org/2000/svg" xmlns:xlink="http://www.w3.org/1999/xlink" xmlns:sketch="http://www.bohemiancoding.com/sketch/ns">
    <title>poches-jupe</title>
    <description>Created with Sketch (http://www.bohemiancoding.com/sketch)</description>
    <defs></defs>
    <g id="Page 1" stroke="none" stroke-width="1" fill="none" fill-rule="evenodd">
        <path d="M107.47637,300.231159 C107.47637,300.231159 92.5123785,330.812645 93.3599554,332.531471 C93.3599554,332.531471 99.8888112,332.531469 99.8888112,332.531469 L107.47637,300.231159 Z M107.47637,300.231159" id="Path 2" stroke="#4FA1DB" fill="#DC84B8"></path>
        <path d="M151.549715,61.1507114 C149.400671,67.5959891 147.459492,74.503981 147.459492,74.503981 L495.656117,73.5091037 C495.656117,73.5091037 494.360055,68.0262169 492.912892,62.644473 C491.101919,55.9097944 489.139851,49.2762586 489.139851,49.2762586 L156.049431,48.7415641 C156.049431,48.7415641 153.695642,54.7147807 151.549715,61.1507114 Z M151.549715,61.1507114" id="Path 5" fill="#B9DCF4"></path>
        <path d="M147.5,74.5 L495.5,73.5" id="Line" stroke="#CB0078" stroke-linecap="square"></path>
        <path d="M511.037606,195.285164 C511.037606,195.285164 494.589874,198.734739 491.808399,211.079151 C488.512975,225.704507 469.336583,223.989762 469.336583,223.989762 C469.336583,223.989762 445.208987,223.288528 433.87965,193.863389 C427.642665,178.062405 427.642665,144.535499 427.642665,144.535499 C427.642665,144.535499 425.197057,86.2076711 511.037609,86.2076902" id="Path 1" stroke="#D70014" stroke-width="2" stroke-dasharray="2" transform="translate(469.336584, 155.129660) rotate(-11.000000) translate(-469.336584, -155.129660) "></path>
        <path d="M212.904871,195.97499 C211.945579,196.235293 198.843295,198.798021 196.06182,211.142433 C192.766396,225.767789 173.590004,224.053044 173.590004,224.053044 C173.590004,224.053044 149.462408,223.35181 138.133071,193.926671 C131.896086,178.125687 131.896086,144.598781 131.896086,144.598781 C131.896086,144.598781 128.785503,86.362043 214.626055,86.3620621" id="Path 1" stroke="#D70014" stroke-width="2" stroke-dasharray="2" transform="translate(173.253968, 155.238487) scale(-1, 1) rotate(-11.000000) translate(-173.253968, -155.238487) "></path>
        <path d="M156.057313,48.67932 C153.251694,55.3777505 143.601859,80.813248 138.981247,115.717024 C135.07748,141.85076 120.075842,223.163024 116.96488,247.869994 C112.578184,282.708725 100.451173,341.412841 100.451173,341.412841 L538.195527,333.128203 C538.195527,333.128203 530.021984,303.048522 526.0838,245.407982 C522.145616,187.767443 511.958378,157.276485 503.492504,109.182906 C498.179664,79.0013122 489.161822,49.1188531 489.161822,49.1188531 C489.161822,49.1188531 157.521053,49.1188527 156.057313,48.67932 Z M156.057313,48.67932" id="Path 1" stroke="#4FA1DB"></path>
        <path d="M107.656004,302.531307 C107.656004,302.531307 103.489813,320.584801 104.618339,324.961494 C105.920334,328.790491 185.308931,330.979325 206.403987,330.588532 C227.499042,330.197739 286.139528,325.156403 311.748682,325.156404 C337.357837,325.156404 424.733829,330.197739 453.077573,330.197738 C481.421317,330.197738 528.732669,325.156404 533.464114,323.554247 C535.287479,323.554247 535.287479,319.60733 535.287479,319.60733 L540.71279,343.05397 C540.71279,343.05397 492.147437,348.216087 439.578128,348.251232 C387.761878,348.285873 332.062966,343.182398 314.136325,344.69511 C278.02251,347.742519 242.917851,349.631262 206.403987,349.57954 C152.211774,349.502777 99.0185883,342.428311 99.0185883,342.428311 L107.656004,302.531307 Z M107.656004,302.531307" id="Path 4" stroke="#4FA1DB" fill="#DC84B8"></path>
        <path d="M533.910185,310.730689 C532.242731,302.093916 531.086746,293.09867 531.086746,293.09867 C531.086746,293.09867 545.416095,322.439148 547.399098,325.07799 C545.416094,326.055942 536.904178,326.348552 536.904178,326.348552 C536.904178,326.348552 535.424171,318.572552 533.910185,310.730689 Z M533.910185,310.730689" id="Path 3" stroke="#4FA1DB" fill="#DC84B8"></path>
    </g>
</svg>