<?xml version="1.0" encoding="UTF-8" standalone="no"?>
<svg width="512px" height="365px" viewBox="0 0 512 365" version="1.1" xmlns="http://www.w3.org/2000/svg" xmlns:xlink="http://www.w3.org/1999/xlink" xmlns:sketch="http://www.bohemiancoding.com/sketch/ns">
    <title>point-stretch</title>
    <description>Created with Sketch (http://www.bohemiancoding.com/sketch)</description>
    <defs></defs>
    <g id="Page 1" stroke="none" stroke-width="1" fill="none" fill-rule="evenodd">
        <g id="Group" transform="translate(238.000000, 86.000000)" stroke="#000000" stroke-width="2">
            <path d="M2.09502353,0 L12.721532,0 L1.62557655,7.11767981 L12.5026208,6.92055424 L1.42212611,14.5427427 L12.5180816,14.3737277 L1.34376782,21.9541016 L12.2991703,21.8834737 L0.968491345,29.2242048 L12.1111807,28.9986173 L0.749228687,36.6071018 L11.1097407,36.5789912 L1.15612958,43.2714216 L11.5479146,43.2854769 L0.483232161,50.922072 L12.2366242,50.8939614 L1.15612958,58.5161499 L11.5637268,58.3190243 L0.999764384,65.6031828 L11.3286519,65.3920019 L1.15612958,72.6058839 L11.219372,72.2959646 L1.89157308,80" id="Path 5"></path>
            <path d="M2.09502353,72 L12.721532,72 L1.62557655,79.1176798 L12.5026208,78.9205542 L1.42212611,86.5427427 L12.5180816,86.3737277 L1.34376782,93.9541016 L12.2991703,93.8834737 L0.968491345,101.224205 L12.1111807,100.998617 L0.749228687,108.607102 L11.1097407,108.578991 L1.15612958,115.271422 L11.5479146,115.285477 L0.483232161,122.922072 L12.2366242,122.893961 L1.15612958,130.51615 L11.5637268,130.319024 L0.999764384,137.603183 L11.3286519,137.392002 L1.15612958,144.605884 L11.219372,144.295965 L1.89157308,152" id="Path 5"></path>
            <path d="M2.09502353,144 L12.721532,144 L1.62557655,151.11768 L12.5026208,150.920554 L1.42212611,158.542743 L12.5180816,158.373728 L1.34376782,165.954102 L12.2991703,165.883474 L0.968491345,173.224205 L12.1111807,172.998617 L0.749228687,180.607102 L11.1097407,180.578991 L1.15612958,187.271422 L11.5479146,187.285477 L0.483232161,194.922072 L12.2366242,194.893961 L3.23459997,200" id="Path 5" stroke-linecap="round"></path>
        </g>
    </g>
</svg>