<?xml version="1.0" encoding="UTF-8" standalone="no"?>
<svg
   xmlns:dc="http://purl.org/dc/elements/1.1/"
   xmlns:cc="http://creativecommons.org/ns#"
   xmlns:rdf="http://www.w3.org/1999/02/22-rdf-syntax-ns#"
   xmlns:svg="http://www.w3.org/2000/svg"
   xmlns="http://www.w3.org/2000/svg"
   xmlns:xlink="http://www.w3.org/1999/xlink"
   xmlns:sodipodi="http://sodipodi.sourceforge.net/DTD/sodipodi-0.dtd"
   xmlns:inkscape="http://www.inkscape.org/namespaces/inkscape"
   width="923px"
   height="1331px"
   viewBox="0 0 923 1331"
   version="1.1"
   id="svg2"
   inkscape:version="0.48.4 r9939"
   sodipodi:docname="cover.svg">
  <metadata
     id="metadata159">
    <rdf:RDF>
      <cc:Work
         rdf:about="">
        <dc:format>image/svg+xml</dc:format>
        <dc:type
           rdf:resource="http://purl.org/dc/dcmitype/StillImage" />
        <dc:title>ebk1-ipadmini-cover</dc:title>
      </cc:Work>
    </rdf:RDF>
  </metadata>
  <sodipodi:namedview
     pagecolor="#ffffff"
     bordercolor="#666666"
     borderopacity="1"
     objecttolerance="10"
     gridtolerance="10"
     guidetolerance="10"
     inkscape:pageopacity="0"
     inkscape:pageshadow="2"
     inkscape:window-width="1440"
     inkscape:window-height="844"
     id="namedview157"
     showgrid="false"
     inkscape:zoom="0.70924117"
     inkscape:cx="332.48307"
     inkscape:cy="373.0381"
     inkscape:window-x="0"
     inkscape:window-y="27"
     inkscape:window-maximized="1"
     inkscape:current-layer="svg2" />
  <title
     id="title4">ebk1-ipadmini-cover</title>
  <description
     id="description6">Created with Sketch (http://www.bohemiancoding.com/sketch)</description>
  <defs
     id="defs8">
    <path
       d="M60.0099649,0 C26.8673765,0 0,26.8551131 0,59.9940498 L0,1224.00595 C0,1257.13975 26.8661511,1284 60.0099649,1284 L804.990035,1284 C838.132624,1284 865,1257.14489 865,1224.00595 L865,59.9940498 C865,26.860251 838.133849,0 804.990035,0 L60.0099649,0 Z M60.0099649,0"
       id="path-1"
       stroke="none"
       fill-rule="evenodd" />
    <linearGradient
       x1="257.07014"
       y1="105.61138"
       x2="11.581189"
       y2="18.965992"
       id="linearGradient-2"
       gradientTransform="scale(3.3200996,0.30119578)"
       gradientUnits="userSpaceOnUse">
      <stop
         stop-color="#C7CCD5"
         offset="0%"
         id="stop12" />
      <stop
         stop-color="#222830"
         offset="1.97174752%"
         id="stop14" />
      <stop
         stop-color="#0C1015"
         offset="7.78950185%"
         id="stop16" />
      <stop
         stop-color="#04080C"
         offset="48.9561886%"
         id="stop18" />
      <stop
         stop-color="#090D11"
         offset="84.6723616%"
         id="stop20" />
      <stop
         stop-color="#2E363F"
         offset="100%"
         id="stop22" />
    </linearGradient>
    <linearGradient
       x1="89.508244"
       y1="4.1330444"
       x2="57.039904"
       y2="272.63156"
       id="linearGradient-3"
       gradientTransform="scale(0.21720452,4.6039557)"
       gradientUnits="userSpaceOnUse">
      <stop
         stop-color="#CFD4DC"
         offset="0%"
         id="stop25" />
      <stop
         stop-color="#14191F"
         offset="2.08899415%"
         id="stop27" />
      <stop
         stop-color="#0C1116"
         offset="37.6076049%"
         id="stop29" />
      <stop
         stop-color="#070C10"
         offset="78.9352086%"
         id="stop31" />
      <stop
         stop-color="#2B323B"
         offset="98.2761641%"
         id="stop33" />
      <stop
         stop-color="#BDC3CD"
         offset="100%"
         id="stop35" />
    </linearGradient>
    <linearGradient
       x1="8.2946712"
       y1="4951.8475"
       x2="214.11158"
       y2="4951.8475"
       id="linearGradient-4"
       gradientTransform="scale(3.9161122,0.2553553)"
       gradientUnits="userSpaceOnUse">
      <stop
         stop-color="#282F38"
         offset="0%"
         id="stop38" />
      <stop
         stop-color="#13181E"
         offset="49.3833031%"
         id="stop40" />
      <stop
         stop-color="#10151A"
         offset="96.0271327%"
         id="stop42" />
      <stop
         stop-color="#C6CCD4"
         offset="100%"
         id="stop44" />
    </linearGradient>
    <linearGradient
       x1="4290.1194"
       y1="9.4122788"
       x2="4290.1194"
       y2="247.81999"
       id="linearGradient-5"
       gradientTransform="scale(0.19834897,5.0416192)"
       gradientUnits="userSpaceOnUse">
      <stop
         stop-color="#363F49"
         offset="0%"
         id="stop47" />
      <stop
         stop-color="#090D11"
         offset="8.06118139%"
         id="stop49" />
      <stop
         stop-color="#070B0F"
         offset="56.9519829%"
         id="stop51" />
      <stop
         stop-color="#21262C"
         offset="100%"
         id="stop53" />
    </linearGradient>
    <path
       d="M60.0099649,0 C26.8673765,0 0,26.8551131 0,59.9940498 L0,1224.00595 C0,1257.13975 26.8661511,1284 60.0099649,1284 L804.990035,1284 C838.132624,1284 865,1257.14489 865,1224.00595 L865,59.9940498 C865,26.860251 838.133849,0 804.990035,0 L60.0099649,0 Z M60.0099649,0"
       id="path-6"
       stroke="none" />
    <mask
       id="mask-7"
       fill="white">
      <use
         xlink:href="#path-1"
         id="use57" />
    </mask>
    <path
       d="M123.741198,7 L61.0178636,7 C31.1890959,7 7.00810185,31.183387 7.00810185,60.9993845 L7.00810185,1223.00062 C7.00810185,1252.82365 31.1902546,1277 61.0079628,1277 L803.992037,1277 C833.815337,1277 857.991898,1252.81661 857.991898,1223.00062 L857.991898,60.9993845 C857.991898,31.1763479 833.823354,7 804.000691,7 L123.741198,7 Z M123.741198,7"
       id="path-8" />
    <path
       d="M116.733096,0 L54.0097618,0 C24.180994,0 0,24.183387 0,53.9993845 L0,1216.00062 C0,1245.82365 24.1821527,1270 53.999861,1270 L796.983935,1270 C826.807235,1270 850.983796,1245.81661 850.983796,1216.00062 L850.983796,53.9993845 C850.983796,24.1763479 826.815252,0 796.992589,0 L116.733096,0 Z M116.733096,0"
       id="path-9"
       stroke="none" />
    <linearGradient
       x1="915.88606"
       y1="-9.313308"
       x2="915.88606"
       y2="773.73623"
       id="linearGradient-10"
       stop-color="#FFFFFF"
       gradientTransform="scale(0.66663458,1.5000722)"
       gradientUnits="userSpaceOnUse">
      <stop
         stop-opacity="0.5"
         offset="0%"
         id="stop62" />
      <stop
         stop-opacity="0"
         offset="60.4867578%"
         id="stop64" />
      <stop
         stop-opacity="0"
         offset="100%"
         id="stop66" />
    </linearGradient>
    <mask
       id="mask-11"
       fill="white">
      <use
         xlink:href="#path-9"
         id="use69" />
    </mask>
    <linearGradient
       x1="32.5"
       y1="65"
       x2="32.5"
       y2="0"
       id="linearGradient-12"
       gradientUnits="userSpaceOnUse">
      <stop
         stop-color="#656E71"
         offset="0%"
         id="stop72" />
      <stop
         stop-color="#1D2124"
         offset="50.0518799%"
         id="stop74" />
      <stop
         stop-color="#000000"
         offset="100%"
         id="stop76" />
    </linearGradient>
    <path
       d="M32.5,65 C50.4492553,65 65,50.4492553 65,32.5 C65,14.5507447 50.4492553,0 32.5,0 C14.5507447,0 0,14.5507447 0,32.5 C0,50.4492553 14.5507447,65 32.5,65 Z M32.5,65"
       id="path-13"
       stroke="none"
       fill-rule="evenodd" />
    <linearGradient
       x1="25.489701"
       y1="-3.1868302"
       x2="25.489701"
       y2="45.890355"
       id="linearGradient-14"
       gradientTransform="scale(1.2943433,0.77259254)"
       gradientUnits="userSpaceOnUse">
      <stop
         stop-color="#000000"
         offset="0%"
         id="stop80" />
      <stop
         stop-color="#000002"
         offset="100%"
         id="stop82" />
    </linearGradient>
    <path
       d="M32.5,65 C50.4492553,65 65,50.4492553 65,32.5 C65,14.5507447 50.4492553,0 32.5,0 C14.5507447,0 0,14.5507447 0,32.5 C0,50.4492553 14.5507447,65 32.5,65 Z M32.5,65"
       id="path-15"
       stroke="none" />
    <linearGradient
       x1="29.503612"
       y1="28.34299"
       x2="44.5"
       y2="45"
       id="linearGradient-16"
       gradientUnits="userSpaceOnUse">
      <stop
         stop-color="#919599"
         offset="0%"
         id="stop86" />
      <stop
         stop-color="#60666A"
         offset="53.4505188%"
         id="stop88" />
      <stop
         stop-color="#545A60"
         offset="100%"
         id="stop90" />
    </linearGradient>
    <mask
       id="mask-17"
       fill="white">
      <use
         xlink:href="#path-13"
         id="use93" />
    </mask>
    <radialGradient
       cx="11.24002"
       cy="12.647083"
       fx="11.24002"
       fy="12.647083"
       r="8.7688528"
       id="radialGradient-18"
       gradientTransform="scale(1.0005785,0.9994218)"
       gradientUnits="userSpaceOnUse">
      <stop
         stop-color="#747474"
         offset="0%"
         id="stop96" />
      <stop
         stop-color="#262626"
         offset="100%"
         id="stop98" />
    </radialGradient>
    <linearGradient
       inkscape:collect="always"
       xlink:href="#linearGradient-2"
       id="linearGradient4063"
       gradientUnits="userSpaceOnUse"
       gradientTransform="scale(3.3200996,0.30119578)"
       x1="257.07014"
       y1="105.61138"
       x2="11.581189"
       y2="18.965992" />
    <linearGradient
       inkscape:collect="always"
       xlink:href="#linearGradient-3"
       id="linearGradient4065"
       gradientUnits="userSpaceOnUse"
       gradientTransform="scale(0.21720452,4.6039557)"
       x1="89.508244"
       y1="4.1330444"
       x2="57.039904"
       y2="272.63156" />
    <linearGradient
       inkscape:collect="always"
       xlink:href="#linearGradient-4"
       id="linearGradient4067"
       gradientUnits="userSpaceOnUse"
       gradientTransform="scale(3.9161122,0.2553553)"
       x1="8.2946712"
       y1="4951.8475"
       x2="214.11158"
       y2="4951.8475" />
    <linearGradient
       inkscape:collect="always"
       xlink:href="#linearGradient-5"
       id="linearGradient4069"
       gradientUnits="userSpaceOnUse"
       gradientTransform="scale(0.19834897,5.0416192)"
       x1="4290.1194"
       y1="9.4122788"
       x2="4290.1194"
       y2="247.81999" />
    <linearGradient
       inkscape:collect="always"
       xlink:href="#linearGradient-10"
       id="linearGradient4071"
       gradientUnits="userSpaceOnUse"
       gradientTransform="scale(0.66663458,1.5000722)"
       x1="915.88606"
       y1="-9.313308"
       x2="915.88606"
       y2="773.73623" />
    <linearGradient
       inkscape:collect="always"
       xlink:href="#linearGradient-12"
       id="linearGradient4073"
       gradientUnits="userSpaceOnUse"
       x1="32.5"
       y1="65"
       x2="32.5"
       y2="0" />
    <linearGradient
       inkscape:collect="always"
       xlink:href="#linearGradient-14"
       id="linearGradient4075"
       gradientUnits="userSpaceOnUse"
       gradientTransform="scale(1.2943433,0.77259254)"
       x1="25.489701"
       y1="-3.1868302"
       x2="25.489701"
       y2="45.890355" />
    <radialGradient
       inkscape:collect="always"
       xlink:href="#radialGradient-18"
       id="radialGradient4079"
       gradientUnits="userSpaceOnUse"
       gradientTransform="scale(1.0005785,0.9994218)"
       cx="11.24002"
       cy="12.647083"
       fx="11.24002"
       fy="12.647083"
       r="8.7688528" />
    <linearGradient
       inkscape:collect="always"
       xlink:href="#linearGradient-10"
       id="linearGradient4142"
       gradientUnits="userSpaceOnUse"
       gradientTransform="scale(0.66663458,1.5000722)"
       x1="915.88606"
       y1="-9.313308"
       x2="915.88606"
       y2="773.73623" />
  </defs>
  <path
     style="fill:#5d8ce1;stroke:none"
     inkscape:connector-curvature="0"
     inkscape:export-ydpi="180"
     inkscape:export-xdpi="180"
     inkscape:export-filename="/home/kivutar/Bureau/book-1/www/assets/img/cover.png"
     id="Rectangle 42"
     d="m 75,682 0,524 768,0 0,-524 -768,0 z m 0,0" />
  <path
     sodipodi:type="arc"
     style="fill:#f8ffd9;fill-opacity:1;stroke:none"
     id="path4210"
     sodipodi:cx="63.448093"
     sodipodi:cy="853.72937"
     sodipodi:rx="50.758476"
     sodipodi:ry="65.563026"
     d="m 114.20657,853.72937 a 50.758476,65.563026 0 1 1 -101.516953,0 50.758476,65.563026 0 1 1 101.516953,0 z"
     transform="matrix(5.6739292,0,0,4.3927197,99.000011,-2806.1938)" />
  <g
     style="fill:#5d8ce1;stroke:none"
     transform="translate(263,791)"
     id="Capa_1">
    <path
       inkscape:connector-curvature="0"
       id="Shape"
       d="m 388.5914,45.114627 -2.20524,-8.641475 c -1.33722,-5.223344 -6.82295,-9.512686 -12.20311,-9.52446 l -95.23194,-0.239387 0.0547,-21.623309 c 0.008,-2.696046 -2.18569,-4.90546948 -4.86795,-4.91331824 l -3.48381,-0.0117731 c -2.69008,-0.003924 -4.89141,2.19765034 -4.89923,4.89369634 l -0.0547,21.623309 -56.88267,-0.145201 0.0547,-21.6233099 C 208.88001,2.2133531 207.18698,0.00392961 205.11077,5.2383616e-6 203.04629,-0.00391914 201.33371,2.1976556 201.32589,4.8937016 L 201.27115,26.517011 64.448543,26.167742 c -5.37625,-0.01177 -12.887358,3.088483 -16.699608,6.891203 l -8.121068,8.10776 c -3.81225,3.806644 -6.627449,11.321824 -6.255999,16.702143 l 0.27761,4.030333 -6.799489,-0.0157 c -2.68617,-0.0039 -4.887499,0.910455 -4.891409,2.036751 0,1.126296 2.193509,2.052448 4.883589,2.056373 l 7.084919,0.0157 5.481819,80.269175 c 0.36754,5.38425 5.063449,9.74423 10.439698,9.68536 0,0 12.441618,-0.12558 21.829526,-0.0824 l -0.09775,39.67936 c 0,0.27863 0.02737,0.54549 0.05865,0.8045 -4.046849,1.47556 -6.951978,5.33322 -7.002808,9.89335 l -26.122706,-0.0549 c -5.376249,-0.0118 -12.887358,3.08456 -16.699607,6.89513 l -14.7602477,14.7399 c -3.8122494,3.81057 -6.94024885,11.3336 -6.95197885,16.72961 L 2.3468093e-5,285.30211 C -0.01170653,290.6942 4.3753127,295.12482 9.7476518,295.1366 L 354.1443,295.99996 c 5.37625,0.0157 9.78282,-4.38745 9.79846,-9.77955 l 0.10166,-40.75464 c 0.0117,-5.39601 -1.45843,-13.959 -3.26876,-19.02537 -1.80642,-5.07029 -3.27658,-13.63328 -3.26485,-19.0293 l 0.17986,-70.93309 c 0.0117,-5.39601 4.4183,-9.79916 9.79455,-9.78346 l 13.59116,0.0353 c 5.37234,0.0118 9.775,-3.88906 9.79064,-8.67287 0.0117,-4.78382 0.0313,-13.11134 0.0469,-18.503435 l 0.086,-35.123161 c 0.008,-5.399941 -1.06743,-14.088509 -2.40856,-19.315777 l 0,0 z m -133.63482,77.260193 -3.38964,35.84141 c -0.50825,5.38803 0.22676,10.38219 1.61858,11.09114 1.40356,0.70895 1.45829,5.58102 0.12511,10.82332 l -4.41787,17.36142 c -1.33319,5.2423 -6.81839,9.52751 -12.19412,9.50782 L 85.955223,206.62182 C 85.927856,202.04515 83.042552,198.15774 79,196.66106 c 0.0391,-0.25995 0.06646,-0.53565 0.06646,-0.80741 l 0.09774,-39.75246 c 1.528664,0.0512 2.552985,0.11028 2.807111,0.19299 1.524754,0.5199 48.107939,-51.10748 48.107939,-51.10748 3.6164,-4.00952 10.93522,-6.746854 16.27186,-6.089105 l 99.82837,12.288485 c 5.33273,0.65381 9.28145,5.59677 8.7771,10.98874 l 0,0 z m 0,0" />
  </g>
  <g
     style="fill:none;stroke:none"
     id="entete"
     transform="translate(75,154)">
    <path
       style="fill:#ffffff"
       inkscape:connector-curvature="0"
       id="Rectangle 41"
       d="M 0,0 0,60 771,60 771,0 0,0 z m 0,0" />
    <path
       style="stroke:#cccccc;stroke-linecap:square"
       inkscape:connector-curvature="0"
       id="Line"
       d="m 0.5,60.5 770,0" />
    <text
       style="font-size:24px;font-weight:bold;fill:#cb0078;font-family:Helvetica Neue"
       y="44.912056"
       x="137"
       font-weight="bold"
       font-size="24"
       id="media">
      <tspan
         id="tspan126">media</tspan>
    </text>
    <text
       style="font-size:24px;font-weight:bold;fill:#4fa1db;font-family:Helvetica Neue"
       y="44.912056"
       x="19"
       font-weight="bold"
       font-size="24"
       id="citronours">
      <tspan
         id="tspan129">citronours</tspan>
    </text>
  </g>
  <text
     style="font-size:64px;font-weight:bold;fill:#ffffff;stroke:none;font-family:Helvetica Neue"
     y="336.43213"
     x="114"
     font-weight="bold"
     font-size="64"
     id="Amélie Morin-Fontain">
    <tspan
       id="tspan137">Amélie Morin-Fontaine</tspan>
  </text>
  <use
     style="fill:none;stroke:none"
     height="1331"
     width="923"
     y="0"
     x="0"
     xlink:href="#path-9"
     id="Gloss Mask"
     transform="translate(37.008102,30)" />
  <g
     style="fill:none;stroke:none"
     id="Camera"
     transform="translate(455.4919,84)">
    <path
       d="M 7.5086806,15 C 11.655611,15 15.017361,11.642136 15.017361,7.5 15.017361,3.3578642 11.655611,0 7.5086806,0 3.3617506,0 0,3.3578642 0,7.5 0,11.642136 3.3617506,15 7.5086806,15 z m 0,0"
       id="Outer"
       style="fill:url(#radialGradient4079)"
       inkscape:connector-curvature="0" />
    <path
       d="M 7.5086806,4.21875 C 5.6943988,4.21875 4.2236328,5.6915031 4.2236328,7.5 l 0,0 c 0,1.8121843 1.4744577,3.28125 3.2850478,3.28125 l 0,0 c 1.8142817,0 3.2850474,-1.4727531 3.2850474,-3.28125 l 0,0 c 0,-1.8121843 -1.4744574,-3.28125 -3.2850474,-3.28125 l 0,0 z m 0,0"
       id="path152"
       inkscape:connector-curvature="0"
       style="fill:#032d61;stroke:#333333" />
    <path
       d="m 6.8047417,7.03125 c 0.3887747,0 0.7039389,-0.3147998 0.7039389,-0.703125 0,-0.3883252 -0.3151642,-0.703125 -0.7039389,-0.703125 -0.3887746,0 -0.7039388,0.3147998 -0.7039388,0.703125 0,0.3883252 0.3151642,0.703125 0.7039388,0.703125 z m 0,0"
       id="Oval 2"
       inkscape:connector-curvature="0"
       style="fill:#03dbf8" />
    <path
       d="m 10.109038,7.5583649 c 0.0194,-1.0677338 -0.9885392,-1.3259125 -0.9885392,-1.3259125 0,0 0.4439287,0.6380329 0.4214008,1.3259125 -0.020895,0.6380329 -0.5082474,1.3259124 -0.5082474,1.3259124 0,0 1.0559898,-0.2581787 1.0753858,-1.3259124 z m 0,0"
       id="Path 5"
       inkscape:connector-curvature="0"
       style="fill:#13abc8" />
    <path
       d=""
       id="Oval 3"
       inkscape:connector-curvature="0"
       style="fill:#2fa4b9" />
  </g>
</svg>
